<?xml version="1.0" encoding="UTF-8"?>
<svg width="20px" height="24px" viewBox="0 0 20 24" version="1.1" xmlns="http://www.w3.org/2000/svg" xmlns:xlink="http://www.w3.org/1999/xlink">
    <!-- Generator: Sketch 53 (72520) - https://sketchapp.com -->
    <title>@1xfile_img</title>
    <desc>Created with Sketch.</desc>
    <defs>
        <linearGradient x1="50%" y1="0%" x2="50%" y2="100%" id="linearGradient-1">
            <stop stop-color="#A1F378" offset="0%"></stop>
            <stop stop-color="#61D13B" offset="100%"></stop>
        </linearGradient>
    </defs>
    <g id="Page-1" stroke="none" stroke-width="1" fill="none" fill-rule="evenodd">
        <g id="C" transform="translate(-354.000000, -242.000000)" fill-rule="nonzero">
            <g id="Group-26-Copy-2" transform="translate(352.000000, 114.000000)">
                <g id="file_img" transform="translate(0.000000, 128.000000)">
                    <rect id="Rectangle" fill="#000000" opacity="0" x="0" y="0" width="24" height="24"></rect>
                    <polygon id="Path" fill="url(#linearGradient-1)" points="17.53125 4.30078125 17.53125 0 2.25 0 2.25 24 21.84375 24 21.84375 4.30078125"></polygon>
                    <polyline id="Path" fill="#C1FF99" points="21.84375 4.3125 17.53125 4.3125 17.53125 0"></polyline>
                    <path d="M17.318,10.1268373 L15.9162857,10.1268373 L14.788,9 L12.0592143,9 L10.9222857,10.1268373 L7.682,10.1268373 C7.30564286,10.1268373 7,10.4289886 7,10.802784 L7,16.3248321 C7,16.6978487 7.30564286,17 7.682,17 L17.318,17 C17.6943571,17 18,16.69707 18,16.3248321 L18,10.802784 C18,10.4289886 17.6943571,10.1268373 17.318,10.1268373 Z M13.4310714,16.0561667 C12.0458571,16.0561667 10.9230714,14.9433466 10.9230714,13.5704273 C10.9230714,12.197508 12.0458571,11.084688 13.4310714,11.084688 C14.8170714,11.084688 15.9390714,12.1982868 15.9390714,13.5704273 C15.9390714,14.9433466 14.8162857,16.0561667 13.4310714,16.0561667 Z M12,13.5 C12,14.3284271 12.6715729,15 13.5,15 C14.3284271,15 15,14.3284271 15,13.5 C15,12.6715729 14.3284271,12 13.5,12 C12.6715729,12 12,12.6715729 12,13.5 L12,13.5 Z" id="Shape" fill="#FFFFFF"></path>
                </g>
            </g>
        </g>
    </g>
</svg>