<?xml version="1.0" encoding="UTF-8"?>
<svg width="18px" height="23px" viewBox="0 0 18 23" version="1.1" xmlns="http://www.w3.org/2000/svg" xmlns:xlink="http://www.w3.org/1999/xlink">
    <!-- Generator: Sketch 53 (72520) - https://sketchapp.com -->
    <title>@1xPDF</title>
    <desc>Created with Sketch.</desc>
    <defs>
        <linearGradient x1="50%" y1="0%" x2="50%" y2="100%" id="linearGradient-1">
            <stop stop-color="#FF8A8A" offset="0%"></stop>
            <stop stop-color="#FF4242" offset="100%"></stop>
        </linearGradient>
        <linearGradient x1="50%" y1="0%" x2="50%" y2="100%" id="linearGradient-2">
            <stop stop-color="#FF9D9D" offset="0%"></stop>
            <stop stop-color="#FF4242" offset="100%"></stop>
        </linearGradient>
    </defs>
    <g id="Page-1" stroke="none" stroke-width="1" fill="none" fill-rule="evenodd">
        <g id="渐变图标" transform="translate(-4.000000, -568.000000)" fill-rule="nonzero">
            <g id="PDF" transform="translate(0.000000, 567.000000)">
                <rect id="Rectangle" fill="#000000" opacity="0" x="0" y="0" width="24" height="24"></rect>
                <path d="M16.3359138,1 L5.41666667,1 C4.63479053,1 4,1.64281722 4,2.4373393 L4,22.5626607 C4,23.3571828 4.63479053,24 5.41666667,24 L20.5833333,24 C21.3652095,24 22,23.3571828 22,22.5626607 L22,6.74935718 L16.3359138,1 Z" id="Path" fill="url(#linearGradient-1)"></path>
                <polygon id="Path" fill="#FFFFFF" points="19 23 4 23 4 2 13.7851865 2 13.7851865 7.63207547 19 7.63207547"></polygon>
                <polygon id="Path" fill="url(#linearGradient-2)" points="21 23 4 23 4 2 14.7851865 2 14.7851865 7.62950257 21 7.62950257"></polygon>
                <path d="M8.07836991,12 C9.27037618,12 9.8646813,12.5054274 9.8646813,13.5196744 C9.8646813,14.5407056 9.26018809,15.0529172 8.06138976,15.0529172 L6.76410658,15.0529172 L6.76410658,17 L6,17 L6,12 L8.07836991,12 Z M6.76750261,14.4016282 L8.01384535,14.4016282 C8.3908046,14.4016282 8.66588297,14.3303935 8.84247649,14.1913161 C9.01227795,14.0522388 9.10057471,13.8283582 9.10057471,13.5196744 C9.10057471,13.2109905 9.00888192,12.9871099 8.83568443,12.8616011 C8.65909091,12.7225237 8.38740857,12.651289 8.01384535,12.651289 L6.76750261,12.651289 L6.76750261,14.4016282 L6.76750261,14.4016282 Z M12.3981191,12 C13.2029781,12 13.8142633,12.2238806 14.235371,12.6784261 C14.6293103,13.0990502 14.822884,13.7062415 14.822884,14.5 C14.822884,15.2835821 14.6191223,15.8941655 14.2183908,16.3283582 C13.7972832,16.7761194 13.1893939,17 12.381139,17 L10.5710554,17 L10.5710554,12 L12.3981191,12 Z M11.338558,16.348711 L12.2419018,16.348711 C12.8735632,16.348711 13.3422153,16.1960651 13.6376698,15.8941655 C13.9263323,15.5922659 14.0723615,15.1309362 14.0723615,14.5 C14.0723615,13.8554953 13.9263323,13.3941655 13.6444619,13.0990502 C13.3490073,12.7971506 12.8871473,12.651289 12.2554859,12.651289 L11.338558,12.651289 L11.338558,16.348711 L11.338558,16.348711 Z M19,12 L19,12.651289 L16.3646813,12.651289 L16.3646813,14.1065129 L18.8539707,14.1065129 L18.8539707,14.7578019 L16.3646813,14.7578019 L16.3646813,17 L15.6005747,17 L15.6005747,12 L19,12 Z" id="Shape" fill="#FFFFFF"></path>
            </g>
        </g>
    </g>
</svg>