<?xml version="1.0" encoding="UTF-8"?>
<svg width="20px" height="24px" viewBox="0 0 20 24" version="1.1" xmlns="http://www.w3.org/2000/svg" xmlns:xlink="http://www.w3.org/1999/xlink">
    <!-- Generator: Sketch 53 (72520) - https://sketchapp.com -->
    <title>@1xfile-rar</title>
    <desc>Created with Sketch.</desc>
    <defs>
        <linearGradient x1="50%" y1="0%" x2="50%" y2="100%" id="linearGradient-1">
            <stop stop-color="#FFAC6D" offset="0%"></stop>
            <stop stop-color="#FF793A" offset="100%"></stop>
        </linearGradient>
    </defs>
    <g id="Page-1" stroke="none" stroke-width="1" fill="none" fill-rule="evenodd">
        <g id="C" transform="translate(-354.000000, -413.000000)" fill-rule="nonzero">
            <g id="Group-26-Copy-2" transform="translate(352.000000, 114.000000)">
                <g id="file-rar" transform="translate(0.000000, 299.000000)">
                    <rect id="Rectangle" fill="#000000" opacity="0" x="0" y="0" width="24" height="24"></rect>
                    <path d="M20.1290323,0.387096773 L14.5548387,0.387096773 C14.6709678,0.387096773 14.7483871,0.464516133 14.7483871,0.580645172 L14.7483871,0.967741945 C14.7483871,1.08387098 14.6709677,1.16129034 14.5548387,1.16129032 L12.6967742,1.16129032 C12.5806451,1.16129032 12.5032258,1.08387096 12.5032258,0.967741945 L12.5032258,0.580645172 C12.5032258,0.464516133 12.5806452,0.387096773 12.6967742,0.387096773 L3.87096773,0.387096773 C3.01935483,0.387096773 2.32258064,1.08387096 2.32258064,1.93548387 L2.32258064,22.0645161 C2.32258064,22.916129 3.01935483,23.6129032 3.87096773,23.6129032 L20.1290323,23.6129032 C20.9806452,23.6129032 21.6774194,22.916129 21.6774194,22.0645161 L21.6774194,1.93548387 C21.6774194,1.08387096 20.9806452,0.387096773 20.1290323,0.387096773 Z M9.32903227,7.12903227 C9.32903227,7.01290323 9.40645162,6.93548387 9.52258064,6.93548387 L11.3806452,6.93548387 C11.4967742,6.93548387 11.5741936,7.01290323 11.5741935,7.12903227 L11.5741935,7.51612904 C11.5741935,7.63225808 11.4967742,7.70967744 11.3806452,7.70967741 L9.52258064,7.70967741 C9.4064516,7.70967741 9.32903224,7.63225805 9.32903227,7.51612904 L9.32903227,7.12903227 L9.32903227,7.12903227 Z M9.32903227,9.45161291 C9.32903227,9.33548387 9.40645162,9.25806451 9.52258064,9.25806451 L11.3806452,9.25806451 C11.4967742,9.25806451 11.5741936,9.33548387 11.5741935,9.45161291 L11.5741935,9.83870968 C11.5741935,9.95483872 11.4967742,10.0322581 11.3806452,10.0322581 L9.52258064,10.0322581 C9.4064516,10.0322581 9.32903224,9.9548387 9.32903227,9.83870968 L9.32903227,9.45161291 Z M9.32903227,12.1612903 C9.32903227,12.0451613 9.40645162,11.9677419 9.52258064,11.9677419 L11.3806452,11.9677419 C11.4967742,11.9677419 11.5741936,12.0451613 11.5741935,12.1612903 L11.5741935,12.5483871 C11.5741935,12.6645161 11.4967742,12.7419355 11.3806452,12.7419355 L9.52258064,12.7419355 C9.4064516,12.7419355 9.32903224,12.6645161 9.32903227,12.5483871 L9.32903227,12.1612903 Z M14.7483871,17 C14.7483871,18.5096774 13.5483871,19.7096774 12.0387097,19.7096774 C10.5290323,19.7096774 9.32903227,18.5096774 9.32903227,17 L9.32903227,14.2903226 L14.7483871,14.2903226 L14.7483871,17 L14.7483871,17 Z M14.7483871,11 C14.7483871,11.116129 14.7096774,11.1935484 14.6322581,11.1935484 L12.6193548,11.1935484 C12.5419355,11.1935484 12.5032258,11.116129 12.5032258,11 L12.5032258,10.6129032 C12.5032258,10.4967742 12.5419355,10.4193548 12.6193548,10.4193548 L14.6322581,10.4193548 C14.7096774,10.4193548 14.7483871,10.4967742 14.7483871,10.6129032 L14.7483871,11 Z M14.7483871,8.29032259 C14.7483871,8.40645163 14.6709677,8.48387098 14.5548387,8.48387096 L12.6967742,8.48387096 C12.5806451,8.48387096 12.5032258,8.4064516 12.5032258,8.29032259 L12.5032258,7.90322581 C12.5032258,7.78709677 12.5806452,7.70967741 12.6967742,7.70967741 L14.5548387,7.70967741 C14.6709678,7.70967741 14.7483871,7.78709677 14.7483871,7.90322581 L14.7483871,8.29032259 Z M9.32903227,2.45161291 C9.32903227,2.33548387 9.40645162,2.25806451 9.52258064,2.25806451 L11.3806452,2.25806451 C11.4967742,2.25806451 11.5741936,2.33548387 11.5741935,2.45161291 L11.5741935,2.83870968 C11.5741935,2.95483872 11.4967742,3.03225808 11.3806452,3.03225805 L9.52258064,3.03225805 C9.4064516,3.03225805 9.32903224,2.9548387 9.32903227,2.83870968 L9.32903227,2.45161291 Z M9.32903227,5.16129032 C9.32903227,5.04516128 9.40645162,4.96774192 9.52258064,4.96774195 L11.3806452,4.96774195 C11.4967742,4.96774195 11.5741936,5.0451613 11.5741935,5.16129032 L11.5741935,5.54838709 C11.5741935,5.66451613 11.4967742,5.74193549 11.3806452,5.74193549 L9.52258064,5.74193549 C9.4064516,5.74193549 9.32903224,5.66451613 9.32903227,5.54838709 L9.32903227,5.16129032 Z M14.7483871,4 C14.7483871,4.11612904 14.7096774,4.1935484 14.6322581,4.1935484 L12.6193548,4.1935484 C12.5419355,4.1935484 12.5032258,4.11612904 12.5032258,4 L12.5032258,3.61290323 C12.5032258,3.49677419 12.5419355,3.41935483 12.6193548,3.41935483 L14.6322581,3.41935483 C14.7096774,3.41935483 14.7483871,3.49677419 14.7483871,3.61290323 L14.7483871,4 Z M14.7483871,1.29032259 C14.7483871,1.40645163 14.6709677,1.48387098 14.5548387,1.48387096 L12.6967742,1.48387096 C12.5806451,1.48387096 12.5032258,1.4064516 12.5032258,1.29032259 L12.5032258,0.903225813 C12.5032258,0.787096773 12.5806452,0.709677414 12.6967742,0.709677414 L14.5548387,0.709677414 C14.6709678,0.709677414 14.7483871,0.787096773 14.7483871,0.903225813 L14.7483871,1.29032259 Z" id="Shape" fill="url(#linearGradient-1)"></path>
                </g>
            </g>
        </g>
    </g>
</svg>