<?xml version="1.0" encoding="UTF-8"?>
<svg width="20px" height="24px" viewBox="0 0 20 24" version="1.1" xmlns="http://www.w3.org/2000/svg" xmlns:xlink="http://www.w3.org/1999/xlink">
    <!-- Generator: Sketch 53 (72520) - https://sketchapp.com -->
    <title>@1xfile_music</title>
    <desc>Created with Sketch.</desc>
    <defs>
        <linearGradient x1="50%" y1="0%" x2="50%" y2="99.6067356%" id="linearGradient-1">
            <stop stop-color="#FA937C" offset="0%"></stop>
            <stop stop-color="#FD5E49" offset="100%"></stop>
        </linearGradient>
    </defs>
    <g id="Page-1" stroke="none" stroke-width="1" fill="none" fill-rule="evenodd">
        <g id="C" transform="translate(-354.000000, -114.000000)" fill-rule="nonzero">
            <g id="Group-26-Copy-2" transform="translate(352.000000, 114.000000)">
                <g id="file_music">
                    <rect id="Rectangle" fill="#000000" opacity="0" x="0" y="0" width="24" height="24"></rect>
                    <polygon id="Path" fill="url(#linearGradient-1)" points="17.53125 4.30078125 17.53125 0 2.25 0 2.25 24 21.84375 24 21.84375 4.30078125"></polygon>
                    <polyline id="Path" fill="#FFA694" points="21.84375 4.3125 17.53125 4.3125 17.53125 0"></polyline>
                    <path d="M16,8.6351706 L16,16.0372453 C16,16.2585927 15.9255045,16.4538183 15.7778681,16.6256718 C15.6302316,16.7975253 15.4433157,16.9308836 15.2184749,17.0257468 C14.9922796,17.1206099 14.7674387,17.1907262 14.5453068,17.2374703 C14.3218204,17.2828396 14.1132331,17.3075866 13.916836,17.3075866 C13.7204388,17.3075866 13.5118516,17.2842145 13.2883652,17.2374703 C13.0648788,17.192101 12.8400379,17.1206099 12.6151971,17.0257468 C12.3903562,16.9308836 12.2034403,16.7975253 12.0558039,16.6256718 C11.9081674,16.4538183 11.8336719,16.2572178 11.8336719,16.0372453 C11.8336719,15.8172728 11.9081674,15.6206724 12.0558039,15.4488189 C12.2034403,15.2769654 12.3903562,15.1449819 12.6151971,15.0487439 C12.8413924,14.9538808 13.0662332,14.8837645 13.2883652,14.8370204 C13.5118516,14.791651 13.7204388,14.7669041 13.916836,14.7669041 C14.37329,14.7669041 14.7891101,14.8535183 15.1670053,15.023997 L15.1670053,11.4783152 L10.1663281,13.0442445 L10.1663281,17.7296588 C10.1663281,17.9496313 10.0918326,18.1462317 9.94419613,18.3180852 C9.79655966,18.4899388 9.60964378,18.6219223 9.38480293,18.7181602 C9.15860761,18.8130234 8.93376676,18.8831396 8.71163484,18.9298838 C8.48814845,18.9752531 8.27956115,19 8.08316403,19 C7.8867669,19 7.6781796,18.9766279 7.45469321,18.9298838 C7.23120683,18.8845144 7.00636598,18.8130234 6.78152513,18.7181602 C6.55668427,18.6232971 6.36976839,18.4899388 6.22213192,18.3180852 C6.07449546,18.1462317 6,17.9496313 6,17.7296588 C6,17.5083115 6.07449546,17.3130859 6.22213192,17.1412323 C6.36976839,16.9693788 6.55668427,16.8373953 6.78152513,16.7411574 C7.00772044,16.6462942 7.23256129,16.576178 7.45469321,16.5294338 C7.6781796,16.4840645 7.8867669,16.4593176 8.08316403,16.4593176 C8.53961804,16.4593176 8.95543817,16.5459318 9.33333333,16.7164104 L9.33333333,10.3262092 C9.33333333,10.1901012 9.37396722,10.0649919 9.45658946,9.95225597 C9.5392117,9.83952006 9.64621428,9.76115486 9.77624272,9.71716035 L15.1927401,8.02612173 C15.2442097,8.00824897 15.3051605,8 15.3742381,8 C15.5476094,8 15.6966003,8.06049244 15.8171475,8.18422697 C15.9404036,8.30933633 16,8.46056743 16,8.6351706 Z" id="Path" fill="#FFFFFF"></path>
                </g>
            </g>
        </g>
    </g>
</svg>